<svg xmlns="http://www.w3.org/2000/svg" width="20" height="20" viewBox="0 0 20 20"><path d="M3.421 13.376C2.306 12.865 2 11.816 2 8.5C2 3.521 2 3 10 3C14.113 3 16.357 3.163 17.211 4.057C17.593 4.455 18.226 4.47 18.625 4.088C19.024 3.706 19.039 3.073 18.657 2.674C17.278 1.232 14.976 1 10 1C1.767 1 0 1.646 0 8.5C0 11.726 0.186 14.094 2.588 15.194C2.723 15.256 2.864 15.285 3.004 15.285C3.383 15.285 3.745 15.068 3.914 14.702C4.144 14.199 3.923 13.606 3.421 13.376ZM14.5 5C13.104 5 12.053 5.024 11.223 5.335C10.706 5.529 10.444 6.106 10.638 6.623C10.832 7.141 11.408 7.399 11.926 7.208C12.438 7.016 13.355 7 14.5 7C18 7 18 7 18 12.5C18 17.976 17.943 17.976 14.991 17.999C14.439 18.003 13.994 18.455 13.999 19.007C14.003 19.557 14.45 19.999 14.999 19.999H15.007C19.54 19.963 20 18.546 20 12.5C20 5.911 19.332 5 14.5 5ZM8.29 15.29C8.11 15.479 8 15.74 8 16C8 16.26 8.11 16.52 8.29 16.71C8.48 16.89 8.73 17 9 17C9.26 17 9.52 16.89 9.71 16.71C9.89 16.52 10 16.26 10 16C10 15.74 9.89 15.479 9.71 15.29C9.34 14.92 8.66 14.92 8.29 15.29ZM9 8C5.135 8 5 9.048 5 14C5 18.952 5.135 20 9 20C12.865 20 13 18.952 13 14C13 9.048 12.865 8 9 8ZM10.723 17.839C10.622 18 9.797 18 9 18C8.24 18 7.378 18 7.277 17.839C7 17.398 7 15.593 7 14C7 12.407 7 10.602 7.277 10.161C7.378 10 8.24 10 9 10C9.797 10 10.622 10 10.723 10.161C11 10.603 11 12.407 11 14C11 15.593 11 17.397 10.723 17.839Z" fill="#fff"/></svg>