<svg xmlns="http://www.w3.org/2000/svg" width="20" height="20" viewBox="0 0 20 20"><path d="M9.51347 11.8057H8.68741L9.09913 10.7481L9.51347 11.8057Z M5.62694 0H14.373C18.493 0 20 1.50695 20 5.62697V14.3732C20 18.4931 18.4903 20 14.3703 20H5.62694C1.50694 20 0 18.4931 0 14.3732V5.62697C0 1.50695 1.50694 0 5.62694 0ZM7 3.67236C7 5.3265 8.34585 6.67236 10 6.67236C11.6541 6.67236 13 5.3265 13 3.67236H12.5762C12.5762 5.09284 11.4206 6.24856 10 6.24856C8.5794 6.24856 7.42383 5.09284 7.42383 3.67236H7ZM8.23903 12.9542L8.48404 12.3388H9.71641L9.95837 12.9542H10.5312L9.34956 10.0001H8.86758L7.68117 12.9542H8.23903ZM17.4608 12.9521H18V10.0001H17.4608V12.9521ZM16.3086 11.6836V11.1457H15.315V10.5405H16.7574V10.002H14.776V12.9539H16.8095V12.4155H15.315V11.6836H16.3086ZM13.1726 12.0325L12.5612 10H12.1154L11.504 12.0325L10.9091 10.0014H10.3276L11.2662 12.9555H11.7185L12.3307 11.0151L12.9428 12.9555H13.3992L14.3354 10.0014H13.7689L13.1726 12.0325ZM6.24587 12.4291C5.84888 12.4291 5.63033 12.1651 5.63033 11.6713V10.0018H5.08396V11.6918C5.08396 12.5233 5.50479 13 6.23849 13C6.97934 13 7.4043 12.5142 7.4043 11.6674V10H6.85815V11.6918C6.85815 12.1724 6.64069 12.4291 6.24587 12.4291ZM3.78026 10.0001V11.1924H2.54636V10.0001H2V12.9557H2.54636V11.7555H3.78026V12.9557H4.32641V10.0001H3.78026Z" fill="#fff"/></svg>