<svg xmlns="http://www.w3.org/2000/svg" width="20" height="20" viewBox="0 0 20 20"><path d="M9.60002 20C5.0745 20 2.81174 20 1.40584 18.5941C4.76837e-07 17.1883 0 14.9255 0 10.4V9.59998C0 5.07446 4.76837e-07 2.81173 1.40584 1.40584C2.81174 0 5.0745 0 9.60002 0H10.4C14.9255 0 17.1883 0 18.5942 1.40584C20 2.81173 20 5.07446 20 9.59998V10.4C20 14.9255 20 17.1883 18.5942 18.5941C17.1883 20 14.9255 20 10.4 20H9.60002ZM14.0891 12.9558L15.4404 13.2934C16.0525 13.4463 16.6458 12.9858 16.6458 12.3578V5.84463C16.6458 5.29183 16.268 4.80977 15.7292 4.67521L11.8532 3.70694C11.2411 3.55407 10.6478 4.0146 10.6478 4.64256V5.81663L8.20569 5.20659C7.59367 5.05372 7.00031 5.51425 7.00031 6.14221V7.31628L4.55804 6.70623C3.94602 6.55331 3.35267 7.01383 3.35267 7.64179V14.1549C3.35267 14.7078 3.73047 15.1898 4.26933 15.3244L8.14527 16.2926C8.75729 16.4455 9.3507 15.985 9.3507 15.357L9.35093 8.85345C9.35093 8.30399 9.00387 7.98539 8.87773 7.88778C8.8537 7.86914 8.84705 7.83445 8.86426 7.8094C8.88125 7.78474 8.91188 7.77306 8.94055 7.78174C9.45119 7.93591 9.93987 8.45946 9.98866 9.1178L10.1573 14.0919C10.1628 14.2553 10.2685 14.397 10.4207 14.4502L11.7929 14.793C12.4049 14.9459 12.9983 14.4854 12.9983 13.8575L12.9993 7.35448C12.9993 6.80497 12.6522 6.48642 12.5261 6.38882C12.5021 6.37017 12.4954 6.33548 12.5126 6.31043C12.5296 6.28578 12.5602 6.2741 12.5889 6.28272C13.0996 6.43694 13.5882 6.9605 13.637 7.61884L13.8057 12.5925C13.8114 12.7627 13.9264 12.9091 14.0891 12.9558Z" fill="#fff"/></svg>