<svg xmlns="http://www.w3.org/2000/svg" width="20" height="20" viewBox="0 0 20 20"><path d="M15.0933 9.27333C15.0229 9.27325 14.9554 9.24682 14.9054 9.19978C14.8555 9.15274 14.8271 9.0889 14.8265 9.02214C14.8142 7.47569 14.3446 6.29447 13.3907 5.41156C12.4483 4.54125 11.2578 4.09469 9.85177 4.08509C9.81673 4.08497 9.78207 4.07831 9.74975 4.06548C9.71743 4.05266 9.68809 4.03393 9.66341 4.01035C9.61355 3.96274 9.58569 3.89829 9.58594 3.8312C9.58619 3.7641 9.61454 3.69984 9.66475 3.65257C9.71496 3.60529 9.78291 3.57887 9.85367 3.5791H9.85588C11.404 3.58991 12.7186 4.08449 13.7632 5.04963C14.8079 6.01477 15.3465 7.35265 15.3604 9.01914C15.3609 9.08618 15.3333 9.15068 15.2837 9.19845C15.2341 9.24623 15.1665 9.27337 15.0958 9.27393L15.0933 9.27333Z M13.6916 8.75416H13.6979C13.7677 8.75402 13.8347 8.72796 13.8845 8.68158C13.9343 8.63519 13.963 8.57216 13.9644 8.50597C13.9878 7.51832 13.6691 6.67742 13.0283 6.01269C12.3875 5.34795 11.4862 4.97072 10.3491 4.89179C10.2785 4.88689 10.2086 4.90882 10.155 4.95275C10.1014 4.99668 10.0684 5.05901 10.0632 5.12602C10.0581 5.19304 10.0812 5.25926 10.1275 5.31011C10.1738 5.36096 10.2395 5.39227 10.3102 5.39717C11.3207 5.46739 12.0786 5.77951 12.6349 6.35511C13.1913 6.93071 13.4517 7.63086 13.4311 8.49547C13.4295 8.56252 13.4561 8.62744 13.5049 8.67595C13.5537 8.72445 13.6209 8.75259 13.6916 8.75416Z M12.1393 8.24914C12.1888 8.29383 12.2546 8.31874 12.3229 8.31874H12.3362C12.3712 8.31709 12.4055 8.30891 12.4372 8.29469C12.4689 8.28046 12.4973 8.26046 12.5208 8.23582C12.5443 8.21119 12.5624 8.1824 12.5742 8.15111C12.586 8.11982 12.5912 8.08663 12.5894 8.05345C12.5305 6.93225 11.8919 6.31013 10.7432 6.25011C10.6736 6.24822 10.606 6.27217 10.5548 6.31686C10.5037 6.36155 10.4729 6.42344 10.4691 6.48933C10.4654 6.55522 10.4889 6.6199 10.5347 6.66956C10.5806 6.71923 10.645 6.74996 10.7144 6.75519C11.585 6.7996 12.0115 7.22005 12.0568 8.07866C12.0602 8.14341 12.0897 8.20445 12.1393 8.24914Z M10.616 11.2609C10.616 11.2609 11.0049 11.2907 11.2142 11.0563L11.6224 10.5894C11.8193 10.358 12.2945 10.2103 12.7598 10.446C13.1084 10.6267 13.447 10.8233 13.774 11.0348C14.0223 11.2007 14.4797 11.5433 14.6505 11.6712C14.6921 11.7024 14.7171 11.7208 14.7171 11.7208C15.0183 11.952 15.0879 12.2914 14.8828 12.6494L14.8819 12.6534L14.8812 12.6568C14.6553 13.0128 14.3685 13.3338 14.0316 13.6078C14.0296 13.6087 14.0276 13.6106 14.0276 13.6106L14.0241 13.6131C13.7314 13.8354 13.4438 13.9618 13.1614 13.9922C13.1198 13.9989 13.0776 14.0013 13.0354 13.9994C12.9109 14.0005 12.787 13.9832 12.6685 13.9481L12.6594 13.9359C12.2242 13.8243 11.4977 13.5451 10.2879 12.9384C9.5878 12.5915 8.92127 12.1912 8.29547 11.742C7.9818 11.517 7.68259 11.2758 7.39933 11.0196L7.30876 10.9372L7.29988 10.9293L7.27857 10.9098C6.99673 10.6523 6.73138 10.3803 6.48383 10.0952C5.98972 9.5264 5.54943 8.92062 5.16767 8.28434C4.50024 7.18428 4.19311 6.52448 4.07038 6.12837L4.05693 6.12001C4.01846 6.01235 3.99951 5.89973 4.00082 5.78654C3.99852 5.74822 4.00106 5.70979 4.00837 5.672C4.04359 5.41567 4.18283 5.15408 4.42608 4.88722L4.42891 4.88401C4.42891 4.88401 4.43096 4.88223 4.43199 4.88036C4.73332 4.57412 5.08645 4.31353 5.47809 4.10841L5.48189 4.10757L5.48629 4.10662C5.88006 3.92019 6.25348 3.98343 6.50745 4.25576C6.50942 4.25755 7.03608 4.83234 7.26217 5.11302C7.49489 5.41062 7.71108 5.71864 7.90991 6.0359C8.16914 6.45856 8.00671 6.89137 7.75207 7.06974L7.23854 7.4408C6.97931 7.6311 7.01344 7.98457 7.01344 7.98457C7.01344 7.98457 7.77406 10.6014 10.616 11.2609Z M10.3834 0.0143546C15.1006 0.0341616 17.2184 1.49208 17.7424 1.95064C19.4826 3.38095 20.4456 6.55428 19.7966 11.5712C19.2239 16.0037 15.9661 16.7893 14.8729 17.0529C14.7657 17.0787 14.6793 17.0996 14.6183 17.1183C14.3227 17.2096 11.7202 17.8269 8.33625 17.5568C7.96282 17.9685 7.46725 18.5072 7.10838 18.8739C7.00021 18.9845 6.89894 19.0937 6.80214 19.198C6.31385 19.7246 5.93937 20.1283 5.36785 19.96C4.8017 19.7938 4.83334 18.9784 4.83334 18.9784L4.83651 16.9644H4.83176C-0.116103 15.6445 -0.0436333 10.7768 0.0123803 8.17935C0.0683938 5.58193 0.599415 3.48689 2.10893 2.05508C4.82068 -0.303758 10.3834 0.0143546 10.3834 0.0143546ZM14.3149 15.648C15.2481 15.4421 17.838 14.8706 18.3158 11.2113V11.2101C18.8643 7.01974 18.1143 4.15943 16.6421 2.9641C16.1987 2.58237 14.2867 1.44286 10.2964 1.42636C10.2964 1.42636 5.57133 1.13195 3.27762 3.10215C2.00102 4.29748 1.57127 6.07471 1.5238 8.24418C1.52223 8.31587 1.52044 8.38971 1.51861 8.46553C1.46504 10.6841 1.37065 14.593 5.41785 15.6586C5.41785 15.6586 5.40139 18.7353 5.39949 19.0054C5.39823 19.1945 5.42987 19.3238 5.54506 19.3505C5.62703 19.3703 5.74981 19.3301 5.85425 19.2305C6.52324 18.5933 8.66505 16.143 8.66505 16.143C11.5395 16.3209 13.8253 15.7817 14.0711 15.7066C14.1287 15.6891 14.2117 15.6708 14.3149 15.648Z" fill="#fff"/></svg>