<svg xmlns="http://www.w3.org/2000/svg" width="32" height="32" viewBox="0 0 32 32"><path d="M5.33998 22.115C2.65598 21.173 2.00098 19.384 2.00098 13C2.00098 3.989 2.45498 3 16.001 3C22.781 3 26.537 3.271 28.244 4.755C28.661 5.116 29.292 5.073 29.655 4.656C30.017 4.239 29.973 3.607 29.556 3.245C27.345 1.324 23.587 1 16.001 1C1.28298 1 0.000976562 2.967 0.000976562 13C0.000976562 18.653 0.326977 22.474 4.67698 24.002C4.78698 24.041 4.89898 24.059 5.00898 24.059C5.42198 24.059 5.80798 23.802 5.95198 23.39C6.13498 22.869 5.86098 22.298 5.33998 22.115ZM23.001 7C20.647 7 18.918 7.102 17.579 7.607C17.062 7.802 16.802 8.379 16.996 8.896C17.192 9.413 17.77 9.673 18.285 9.478C19.337 9.081 20.931 9 23.001 9C29.408 9 30.001 9.278 30.001 19C30.001 28.722 29.408 29 23.001 29C22.668 29 22.349 28.998 22.043 28.992C21.448 28.988 21.035 29.422 21.024 29.973C21.014 30.525 21.453 30.981 22.005 30.992C22.323 30.998 22.655 31 23.001 31C31.28 31 32.001 29.033 32.001 19C32.001 8.967 31.28 7 23.001 7ZM23.001 27H25.001C25.553 27 26.001 26.553 26.001 26C26.001 25.447 25.553 25 25.001 25H23.001C22.449 25 22.001 25.447 22.001 26C22.001 26.553 22.449 27 23.001 27ZM12.79 25.29C12.61 25.479 12.5 25.729 12.5 26C12.5 26.26 12.61 26.52 12.79 26.71C12.98 26.89 13.24 27 13.5 27C13.76 27 14.02 26.89 14.21 26.71C14.39 26.52 14.5 26.26 14.5 26C14.5 25.729 14.39 25.479 14.21 25.29C13.83 24.92 13.17 24.92 12.79 25.29ZM14.5 14H12.5C11.948 14 11.5 14.447 11.5 15C11.5 15.553 11.948 16 12.5 16H14.5C15.052 16 15.5 15.553 15.5 15C15.5 14.447 15.052 14 14.5 14ZM13.5 11C6.99998 11 6.99998 12.92 6.99998 21C6.99998 29.08 6.99998 31 13.5 31C20 31 20 29.08 20 21C20 12.92 20 11 13.5 11ZM13.5 29C8.99998 29 8.99998 29 8.99998 21C8.99998 13 8.99998 13 13.5 13C18 13 18 13 18 21C18 29 18 29 13.5 29Z" fill="#a5a1b2"/></svg>