<svg xmlns="http://www.w3.org/2000/svg" width="32" height="32" viewBox="0 0 32 32"><path d="M16.0001 16C19.8601 16 23.0001 12.86 23.0001 9C23.0001 5.14 19.8601 2 16.0001 2C12.1401 2 9.00011 5.14 9.00011 9C9.00011 12.86 12.1401 16 16.0001 16ZM16.0001 4C18.7571 4 21.0001 6.243 21.0001 9C21.0001 11.757 18.7571 14 16.0001 14C13.2431 14 11.0001 11.757 11.0001 9C11.0001 6.243 13.2431 4 16.0001 4ZM20.4551 19.215L19.9101 19.173L16.4091 23.802C16.1511 24.143 15.8501 24.143 15.5911 23.802L12.0901 19.173L11.5451 19.215C3.93411 19.802 3.17211 24.008 3.00011 29.032C2.98111 29.584 3.41411 30.047 3.96511 30.066C3.97711 30.066 3.98811 30.066 4.00011 30.066C4.53711 30.066 4.98011 29.64 4.99911 29.1C5.16511 24.234 5.84211 21.813 11.1581 21.256L13.9941 25.006C14.5021 25.678 15.2331 26.064 15.9981 26.064C16.7631 26.064 17.4941 25.678 18.0021 25.006L20.8381 21.257C26.1491 21.816 26.8281 24.236 26.9991 29.1C27.0191 29.652 27.4811 30.088 28.0341 30.064C28.5861 30.044 29.0181 29.581 28.9981 29.029C28.8231 24.01 28.0581 19.806 20.4551 19.215Z" fill="#a5a1b2"/></svg>