<svg xmlns="http://www.w3.org/2000/svg" width="32" height="32" viewBox="0 0 32 32"><path d="M12 12C1.859 12 0 12.809 0 21C0 29.191 1.859 30 12 30C22.139 30 24 29.191 24 21C24 12.809 22.139 12 12 12ZM12 14C19.669 14 21.487 14.121 21.889 18H2.11099C2.51399 14.121 4.332 14 12 14ZM12 28C2.705 28 2 27.838 2 21C2 20.646 2.003 20.319 2.008 20H21.991C21.996 20.319 21.999 20.646 21.999 21C22 27.838 21.295 28 12 28ZM20 2C11.206 2 8.33699 2.54199 8.03799 8.98999C8.01299 9.54199 8.439 10.01 8.991 10.035C9.536 10.052 10.011 9.634 10.036 9.082C10.242 4.638 10.873 3.99899 20 3.99899C29.722 3.99899 30 4.59199 30 10.999C30 16.021 29.492 17.073 26.801 17.619C26.26 17.729 25.91 18.256 26.02 18.798C26.116 19.272 26.533 19.599 26.999 19.599C27.065 19.599 27.132 19.593 27.199 19.579C31.677 18.671 32 15.732 32 10.999C32 2.72099 30.034 2 20 2Z" fill="#a5a1b2"/></svg>