<svg xmlns="http://www.w3.org/2000/svg" width="32" height="32" viewBox="0 0 32 32"><path d="M16 31C1.282 31 0 29.034 0 19C0 13.349 0.325007 9.531 4.66701 8C5.18701 7.817 5.75899 8.09102 5.94299 8.61102C6.12699 9.13202 5.853 9.70302 5.332 9.88702C2.654 10.831 2 12.619 2 19C2 28.01 2.454 29 16 29C29.546 29 30 28.01 30 19C30 12.618 29.345 10.829 26.664 9.88599C26.143 9.70199 25.87 9.13202 26.053 8.61102C26.236 8.09002 26.807 7.817 27.328 8C31.675 9.53 32 13.349 32 19.001C32 29.034 30.718 31 16 31ZM16 1C8.986 1 8 3.395 8 13V22C8 23.104 8.895 24 10 24C10.365 24 11 23.73 11 23.73L16 20.844L20.998 23.73C20.998 23.73 21.635 24 22 24C23.104 24 24 23.104 24 22V13C24 3.395 23.014 1 16 1ZM10 13C10 3.307 10.951 3 16 3C21.816 3 22 4.584 22 13V21.969C21.959 21.956 21.914 21.941 21.871 21.925L16 18.535L10.127 21.926C10.084 21.941 10.041 21.956 10 21.969V13Z" fill="#a5a1b2"/></svg>