<svg xmlns="http://www.w3.org/2000/svg" width="32" height="32" viewBox="0 0 32 32"><path d="M16 7C15.448 7 15 7.447 15 8V16.414L19.541 20.956C19.736 21.151 19.992 21.249 20.248 21.249C20.504 21.249 20.76 21.151 20.955 20.956C21.346 20.565 21.346 19.933 20.955 19.542L17 15.586V8C17 7.447 16.552 7 16 7ZM16 1C11.262 1 6.812 3.266 4 7.007V3C4 2.447 3.552 2 3 2C2.448 2 2 2.447 2 3V10H9C9.552 10 10 9.553 10 9C10 8.447 9.552 8 9 8H5.756C8.2 4.88 11.981 3 16 3C23.168 3 29 8.832 29 16C29 23.168 23.168 29 16 29C8.832 29 3 23.168 3 16C3 15.447 2.552 15 2 15C1.448 15 1 15.447 1 16C1 24.271 7.729 31 16 31C24.271 31 31 24.271 31 16C31 7.729 24.271 1 16 1Z" fill="#a5a1b2"/></svg>