<svg xmlns="http://www.w3.org/2000/svg" width="32" height="32" viewBox="0 0 32 32"><path d="M16 32C5.967 32 4 30.718 4 16C4 1.282 5.967 0 16 0C16.351 0 16.689 0.002 17.02 0.006L17.427 0.011L27.899 10.483L27.916 10.872C27.974 12.211 28 13.793 28 16C28 30.718 26.033 32 16 32ZM16 2C6.989 2 6 2.454 6 16C6 29.546 6.989 30 16 30C25.011 30 26 29.546 26 16C26 14.3667 25.9855 13.0837 25.9543 11.9924C17.3073 11.887 16.1087 10.6736 16.0071 2L16 2ZM24.5654 9.97822L18.0218 3.43393C18.1369 9.10853 18.8914 9.8631 24.5654 9.97822ZM13 26C13 26.553 13.447 27 14 27C14.553 27 15 26.553 15 26V24H19C19.553 24 20 23.553 20 23C20 22.447 19.553 22 19 22H15V21H17C19.206 21 21 19.206 21 17C21 14.794 19.206 13 17 13H15C13.897 13 13 13.897 13 15V19H12C11.447 19 11 19.447 11 20C11 20.553 11.447 21 12 21H13V22H12C11.447 22 11 22.447 11 23C11 23.553 11.447 24 12 24H13V26ZM19 17C19 18.103 18.103 19 17 19H15V15H17C18.103 15 19 15.897 19 17Z" fill="#a5a1b2"/></svg>