<svg xmlns="http://www.w3.org/2000/svg" width="32" height="32" viewBox="0 0 32 32"><path d="M23.001 17.0579H19.001C17.347 17.0579 16.001 18.4029 16.001 20.0556C16.001 21.7083 17.347 23.0532 19.001 23.0532H23.001C24.655 23.0532 26.001 21.7083 26.001 20.0556C26.001 18.4029 24.655 17.0579 23.001 17.0579ZM23.001 21.0548H19.001C18.45 21.0548 18.001 20.6071 18.001 20.0556C18.001 19.504 18.45 19.0564 19.001 19.0564H23.001C23.552 19.0564 24.001 19.504 24.001 20.0556C24.001 20.6071 23.552 21.0548 23.001 21.0548ZM8.65297 6.84394C9.12997 7.11872 9.74298 6.95582 10.019 6.4782C13.224 0.934541 13.76 0.559822 22.181 5.41702C23.086 5.93861 23.901 6.41926 24.632 6.86791C24.795 6.96783 24.976 7.01476 25.154 7.01476C25.49 7.01476 25.819 6.84591 26.007 6.53815C26.296 6.06752 26.149 5.45202 25.678 5.16325C24.933 4.70661 24.103 4.21699 23.18 3.6854C14.491 -1.32667 12.427 -1.68538 8.28697 5.478C8.01097 5.95763 8.17497 6.56815 8.65297 6.84394ZM16.001 9.01722H6.00098C4.89798 9.01722 4.00098 8.12093 4.00098 7.01879C4.00098 5.91665 4.89798 5.02035 6.00098 5.02035C6.55298 5.02035 7.00098 4.5737 7.00098 4.02114C7.00098 3.46857 6.55298 3.02192 6.00098 3.02192C3.79498 3.02192 2.00098 4.81452 2.00098 7.01879V20.0086C2.00098 29.1504 4.35598 31 16.001 31C27.646 31 30.001 29.1504 30.001 20.0086C30.001 10.8668 27.646 9.01722 16.001 9.01722ZM16.001 29.0016C4.88898 29.0016 4.00098 27.6426 4.00098 20.0086V10.4791C4.58998 10.8208 5.27298 11.0157 6.00098 11.0157H16.001C27.113 11.0157 28.001 12.3746 28.001 20.0086C28.001 27.6426 27.113 29.0016 16.001 29.0016Z" fill="#a5a1b2"/></svg>