<svg xmlns="http://www.w3.org/2000/svg" width="32" height="32" viewBox="0 0 32 32"><path d="M19.0023 27C18.45 27 18.0018 27.448 18.0018 28C18.0018 29.103 17.1044 30 16.001 30C14.8975 30 14.0001 29.103 14.0001 28C14.0001 27.448 13.5519 27 12.9997 27C12.4475 27 11.9993 27.448 11.9993 28C11.9993 30.206 13.794 32 16.001 32C18.2079 32 20.0027 30.206 20.0027 28C20.0027 27.448 19.5545 27 19.0023 27ZM27.4899 17.389C26.3804 15.948 25.333 14.586 25.0189 12.636L23.8764 6.61099C23.2031 2.77999 19.8907 0 16 0C12.1093 0 8.79693 2.77999 8.12664 6.59799L6.97716 12.664C6.67403 14.554 5.6466 15.863 4.55914 17.249C3.3016 18.853 2 20.51 2 23.001C2 24.122 2.85436 25 3.94382 25H28.0562C29.1466 25 30 24.122 30 23.001C30.001 20.651 28.7244 18.993 27.4899 17.389ZM8.94798 13.008L10.0955 6.957C10.6007 4.085 13.0837 2 16.001 2C18.9182 2 21.4013 4.085 21.9085 6.97L23.049 12.98C23.3071 14.587 23.9724 15.875 24.7277 17H7.24327C8.0096 15.892 8.68987 14.619 8.94798 13.008ZM3.99487 23.001C3.99487 21.417 4.76822 20.251 5.73164 19H26.2044C27.1878 20.291 27.9971 21.467 28.0051 23L3.99487 23.001Z" fill="#a5a1b2"/></svg>