<svg xmlns="http://www.w3.org/2000/svg" width="32" height="32" viewBox="0 0 32 32"><path d="M15.9996 31C15.2106 31 14.4426 30.922 13.6876 30.805C11.8576 25.168 10.1266 24.172 4.32657 25.409C3.35957 24.21 2.58258 22.858 2.01758 21.397C5.96658 17.009 5.96658 14.993 2.01758 10.603C2.58158 9.14303 3.35957 7.79098 4.32657 6.59198C10.1276 7.82798 11.8576 6.83298 13.6876 1.19598C14.4436 1.07898 15.2106 1 15.9996 1C16.7886 1 17.5586 1.07898 18.3136 1.19598C20.1436 6.83198 21.8746 7.82798 27.6746 6.59198C28.6416 7.78998 29.4186 9.14303 29.9836 10.603C26.0346 14.991 26.0346 17.008 29.9836 21.396C29.4196 22.857 28.6416 24.21 27.6746 25.408C21.8716 24.172 20.1436 25.168 18.3136 30.804C17.5566 30.922 16.7886 31 15.9996 31ZM5.18857 23.207C10.6616 22.297 13.2196 23.773 15.1636 28.967C15.4546 28.99 15.7296 29 15.9996 29C16.2696 29 16.5466 28.99 16.8356 28.967C18.7806 23.775 21.3396 22.297 26.8106 23.208C27.1196 22.744 27.3986 22.26 27.6466 21.755C26.1996 20.015 25.0216 18.12 25.0216 16C25.0216 13.88 26.1996 11.986 27.6466 10.246C27.3986 9.74197 27.1196 9.25701 26.8126 8.79401C21.3396 9.70401 18.7836 8.22602 16.8356 3.03302C16.5466 3.01102 16.2706 3 15.9996 3C15.7296 3 15.4546 3.01102 15.1656 3.03302C13.2186 8.22602 10.6596 9.70403 5.18857 8.79303C4.87957 9.25603 4.60257 9.741 4.35457 10.245C5.80157 11.985 6.97957 13.88 6.97957 16C6.97957 18.12 5.80157 20.015 4.35457 21.755C4.60357 22.259 4.88057 22.744 5.18857 23.207ZM15.9996 11C13.2376 11 10.9996 13.238 10.9996 16C10.9996 18.762 13.2376 21 15.9996 21C18.7616 21 20.9996 18.762 20.9996 16C20.9996 13.238 18.7616 11 15.9996 11ZM15.9996 19C14.3456 19 12.9996 17.654 12.9996 16C12.9996 14.346 14.3456 13 15.9996 13C17.6536 13 18.9996 14.346 18.9996 16C18.9996 17.654 17.6536 19 15.9996 19Z" fill="#a5a1b2"/></svg>