<svg xmlns="http://www.w3.org/2000/svg" width="32" height="32" viewBox="0 0 32 32"><path d="M16 2C1.281 2 0 3.967 0 14C0 24.033 1.281 26 16 26C30.719 26 32 24.033 32 14C32 3.967 30.719 2 16 2ZM16 24C2.453 24 2 23.01 2 14C2 4.99 2.453 4 16 4C29.545 4 30 4.99 30 14C30 23.01 29.545 24 16 24ZM23 29C23 29.553 22.553 30 22 30H10C9.447 30 9 29.553 9 29C9 28.447 9.447 28 10 28H22C22.553 28 23 28.447 23 29ZM20.99 12.257L15.015 8.80899C14.4 8.45499 13.617 8.44899 12.999 8.80399C12.382 9.15999 11.999 9.828 11.999 10.547V17.448C11.999 18.168 12.384 18.836 12.999 19.19C13.304 19.367 13.649 19.46 14.001 19.46C14.355 19.46 14.704 19.366 15.013 19.189L20.992 15.737C21.613 15.377 22 14.711 22 13.998C22 13.286 21.613 12.62 20.99 12.257ZM14.014 17.456C14.008 17.459 14.004 17.46 14.002 17.46L14 17.448L14.014 10.54L19.991 14.005L14.014 17.456Z" fill="#a5a1b2"/></svg>