<svg xmlns="http://www.w3.org/2000/svg" width="32" height="32" viewBox="0 0 32 32"><path d="M28.0618 11.854C27.9834 5.305 22.6028 0 16.001 0C9.39914 0 4.01957 5.305 3.94017 11.854C-0.318665 13.691 -0.542825 16.189 0.567869 20.311C1.55191 23.964 2.83951 26.041 6.41685 26.041C6.86213 26.041 7.3436 26.009 7.86427 25.943L8.97396 25.803L6.30226 14.583C6.11732 13.899 6.00475 13.214 5.96555 12.538C5.96655 12.492 5.96454 12.445 5.95851 12.399C5.95248 12.267 5.94946 12.133 5.94946 12C5.94946 6.486 10.4586 2 16.001 2C21.5434 2 26.0525 6.486 26.0525 12C26.0525 12.126 26.0505 12.253 26.0445 12.381C26.0354 12.441 26.0324 12.5 26.0354 12.559C25.9942 13.226 25.8806 13.912 25.6927 14.615L23.028 25.805L24.1377 25.945C28.8338 26.538 30.3254 24.421 31.4321 20.312C32.5428 16.189 32.3186 13.691 28.0618 11.854ZM6.49124 24.053C4.2015 24.12 3.40643 23.123 2.50983 19.794C1.58207 16.348 1.81325 15.088 4.11003 13.969C4.17335 14.341 4.25577 14.71 4.35428 15.075L6.49124 24.053ZM29.4911 19.794C28.5935 23.122 27.7904 24.107 25.5117 24.053L27.6427 15.103C27.7442 14.724 27.8276 14.346 27.8919 13.969C30.1877 15.087 30.4189 16.348 29.4911 19.794ZM24.0422 28H20.8418C20.4247 26.839 19.32 26 18.0113 26H13.9907C12.3282 26 10.9752 27.346 10.9752 29C10.9752 30.654 12.3282 32 13.9907 32H18.0113C19.32 32 20.4247 31.161 20.8418 30H24.0422C24.597 30 25.0473 29.553 25.0473 29C25.0473 28.447 24.597 28 24.0422 28ZM18.0113 30H13.9907C13.4368 30 12.9855 29.552 12.9855 29C12.9855 28.448 13.4368 28 13.9907 28H18.0113C18.5651 28 19.0164 28.448 19.0164 29C19.0164 29.552 18.5651 30 18.0113 30Z" fill="#a5a1b2"/></svg>