<svg xmlns="http://www.w3.org/2000/svg" width="16" height="16" viewBox="0 0 16 16"><path d="M11.9859 16C9.95505 16 7.5802 14.5691 4.51239 11.4983C-0.29032 6.69255 -1.19424 3.49479 1.4906 0.806958C2.01757 0.27999 2.66252 0 3.35547 0C4.34641 0 5.3704 0.541949 6.48334 1.65688C7.95625 3.13179 8.2462 4.96066 7.32825 6.76955L9.23512 8.67745C11.035 7.7625 12.8779 8.05451 14.3458 9.52542C15.1547 10.3354 15.6557 11.0893 15.8747 11.8312C16.1717 12.8302 15.9307 13.7851 15.1947 14.5211C14.5618 15.156 13.5388 16 11.9859 16ZM3.35547 1.99988C3.24748 1.99988 3.09846 2.02482 2.90348 2.22081C2.05853 3.06676 0.485718 4.64168 5.92539 10.0843C8.52123 12.6832 10.56 14.0001 11.9859 14.0001C12.6209 14.0001 13.1579 13.7321 13.7828 13.1072C14.0038 12.8862 14.0509 12.7022 13.9609 12.4012C13.8779 12.1202 13.6308 11.6373 12.9339 10.9393C12.4049 10.4104 11.8709 10.1534 11.298 10.1534C10.657 10.1534 10.0451 10.4824 9.64611 10.7573L8.96011 11.2303L4.77641 7.04358L5.25038 6.35758C6.38831 4.71068 5.6923 3.69272 5.07034 3.06976C4.10439 2.10482 3.55046 1.99988 3.35547 1.99988Z" fill="#fff"/></svg>