<svg xmlns="http://www.w3.org/2000/svg" width="32" height="32" viewBox="0 0 32 32"><path d="M16.001 20C21.5149 20 26.0009 15.514 26.0009 10C26.0009 4.486 21.5149 0 16.001 0C10.487 0 6.00095 4.486 6.00095 10C6.00095 15.514 10.487 20 16.001 20ZM16.001 2C20.412 2 24.0009 5.589 24.0009 10C24.0009 14.411 20.412 18 16.001 18C11.59 18 8.00095 14.411 8.00095 10C8.00095 5.589 11.59 2 16.001 2ZM16.001 14C18.207 14 20.0009 12.206 20.0009 10C20.0009 7.794 18.207 6 16.001 6C13.795 6 12.001 7.794 12.001 10C12.001 12.206 13.795 14 16.001 14ZM16.001 8C17.104 8 18.001 8.897 18.001 10C18.001 11.103 17.104 12 16.001 12C14.898 12 14.001 11.103 14.001 10C14.001 8.897 14.898 8 16.001 8ZM26.9459 17.512C26.6119 17.073 25.986 16.987 25.545 17.32C25.1049 17.654 25.019 18.282 25.353 18.721C26.53 20.272 27.871 22.552 27.9939 25.005L23.209 25.003C22.8519 25.003 22.521 25.193 22.343 25.503L20.028 29.518C18.735 28.154 17.156 24.976 17.003 22.748C17.002 22.719 16.984 22.69 16.981 22.661C16.969 22.573 16.95 22.491 16.917 22.411C16.908 22.389 16.91 22.364 16.899 22.342C16.887 22.319 16.867 22.303 16.853 22.28C16.822 22.228 16.787 22.182 16.748 22.137C16.712 22.096 16.675 22.058 16.633 22.024C16.589 21.987 16.542 21.958 16.492 21.929C16.442 21.901 16.393 21.876 16.34 21.857C16.314 21.848 16.293 21.83 16.266 21.823C16.236 21.815 16.206 21.82 16.176 21.815C16.119 21.804 16.064 21.799 16.005 21.799C15.946 21.799 15.891 21.804 15.834 21.815C15.804 21.82 15.774 21.815 15.744 21.823C15.717 21.83 15.696 21.848 15.67 21.857C15.616 21.877 15.567 21.901 15.518 21.929C15.468 21.957 15.421 21.987 15.377 22.024C15.335 22.058 15.298 22.096 15.262 22.137C15.222 22.182 15.187 22.228 15.157 22.28C15.143 22.302 15.123 22.318 15.111 22.342L15.11 22.344C15.099 22.365 15.102 22.389 15.093 22.41C15.057 22.496 15.037 22.585 15.026 22.679C15.023 22.709 15.005 22.738 15.004 22.768C14.843 24.995 13.27 28.159 11.981 29.518L9.66595 25.503C9.48695 25.193 9.15695 25.003 8.79995 25.003L4.00995 25.005C4.13295 22.552 5.47395 20.272 6.65095 18.721C6.98495 18.282 6.89895 17.654 6.45895 17.32C6.01995 16.988 5.39195 17.074 5.05795 17.512C2.85795 20.409 1.81095 23.374 2.02995 26.086C2.07095 26.605 2.50495 27 3.02595 27H8.21795L10.812 31.5C10.996 31.818 11.332 32 11.679 32C11.823 32 11.969 31.969 12.107 31.903C13.555 31.215 15.049 28.989 16.002 26.679C16.955 28.989 18.4489 31.215 19.8969 31.903C20.035 31.969 20.181 32 20.325 32C20.672 32 21.0079 31.818 21.1919 31.5L23.7859 27H28.978C29.499 27 29.933 26.6 29.975 26.08C30.1919 23.368 29.146 20.409 26.9459 17.512Z" fill="#a5a1b2"/></svg>