<svg xmlns="http://www.w3.org/2000/svg" width="16" height="16" viewBox="0 0 16 16"><path d="M6.4943 14C2.25202 14 1.99825 14 1.99825 8C1.99825 2 2.25202 2 6.4943 2C7.04582 2 7.49343 1.553 7.49343 1C7.49343 0.447 7.04582 0 6.4943 0C0.598475 0 0 1.516 0 8C0 14.484 0.598475 16 6.4943 16C7.04582 16 7.49343 15.553 7.49343 15C7.49343 14.447 7.04682 14 6.4943 14ZM10.349 2.34399C9.95829 1.95299 9.32685 1.95299 8.93619 2.34399C8.54553 2.73499 8.54553 3.367 8.93619 3.758L12.1754 7H4.99562C4.4441 7 3.99649 7.447 3.99649 8C3.99649 8.553 4.4441 9 4.99562 9H12.1754L8.93619 12.242C8.54553 12.633 8.54553 13.265 8.93619 13.656C9.13102 13.851 9.38677 13.949 9.64254 13.949C9.89832 13.949 10.1541 13.851 10.349 13.656L16 8L10.349 2.34399Z" fill="#f30745"/></svg>