<svg xmlns="http://www.w3.org/2000/svg" viewBox="0 0 17.96 22.45">
  <g>
    <path fill='#a5a1b2' d="M8.99,22.45c-1.96,0-3.93,0-5.89,0C1.3,22.44,0,21.15,0,19.35c0-2.78,0-5.56,0-8.35,0-1.8,1.3-3.1,3.1-3.09,.23,0,.29-.05,.3-.29,.02-1.04-.05-2.1,.13-3.12C3.98,1.8,6.41-.07,9.2,0c2.65,.07,4.97,2.13,5.3,4.78,.12,.95,.07,1.91,.07,2.87,0,.21,.06,.25,.26,.25,1.86,0,3.13,1.28,3.13,3.15,0,2.76,0,5.52,0,8.28,0,1.81-1.29,3.11-3.1,3.11-1.96,0-3.91,0-5.87,0Zm-.02-1.5c1.97,0,3.94,0,5.92,0,.95,0,1.58-.63,1.58-1.59,0-2.79,0-5.58,0-8.37,0-.96-.63-1.59-1.6-1.59-3.92,0-7.84,0-11.76,0-.98,0-1.6,.63-1.6,1.61,0,2.77,0,5.55,0,8.32,0,.99,.62,1.61,1.62,1.61,1.95,0,3.9,0,5.85,0Zm.01-13.04c1.29,0,2.59,0,3.88,0,.07,0,.2-.11,.2-.17,0-.82,.03-1.64-.01-2.45-.11-2.02-1.81-3.68-3.84-3.78-2.08-.1-3.96,1.34-4.24,3.36-.13,.93-.06,1.88-.09,2.82,0,.2,.07,.23,.24,.22,1.29,0,2.57,0,3.86,0Z"/>
    <path fill='#a5a1b2' d="M7.96,16.13c0-.12,0-.25,0-.37,.02-.33-.03-.61-.23-.91-.41-.61-.21-1.44,.37-1.88,.58-.44,1.39-.39,1.9,.12,.52,.51,.57,1.33,.14,1.92-.08,.11-.14,.28-.14,.42-.02,.48,0,.97,0,1.45,0,.52-.3,.81-.82,.82-.15,0-.3,0-.44,0-.46-.01-.76-.31-.77-.77,0-.26,0-.53,0-.79Z"/>
  </g>
</svg>