<svg xmlns="http://www.w3.org/2000/svg" width="32" height="32" viewBox="0 0 32 32"><path d="M30.784 8.68801C30.647 8.35501 30.501 8.00801 30.343 7.64501C27.645 1.45201 25.865 1.00101 16 1.00101C6.13603 1.00101 4.35503 1.45201 1.65803 7.64501C1.49903 8.00801 1.35403 8.35501 1.21703 8.68701C0.89603 9.46501 0.93503 10.582 1.30803 11.343C4.91003 18.685 11.607 31 16 31C20.393 31 27.09 18.685 30.692 11.344C31.064 10.584 31.104 9.46801 30.784 8.68801ZM28.509 8.44401C28.594 8.63801 28.667 8.81601 28.744 9.00001H23.674L20.176 3.06101C26.044 3.28301 26.7 4.29201 28.509 8.44401ZM17.824 3.00901L21.353 9.00001H10.649L14.184 3.00601C14.754 3.00301 15.351 3.00101 15.999 3.00101C16.649 3.00101 17.253 3.00301 17.824 3.00901ZM21.663 11L16 27.697L10.338 11H21.663ZM11.84 3.04401L8.32803 9.00001H3.25603C3.33303 8.81601 3.40603 8.63901 3.49003 8.44601C5.39103 4.08301 6.36503 3.21501 11.84 3.04401ZM3.37003 11H8.22603L13.874 27.652C11.708 25.562 8.17803 20.714 3.37003 11ZM18.127 27.651L23.775 11H28.63C23.824 20.712 20.294 25.56 18.127 27.651Z" fill="#a5a1b2"/></svg>