<svg xmlns="http://www.w3.org/2000/svg" width="16" height="16" viewBox="0 0 16 16">
  <path
    d="M9.3737 0.742465L9.34678 0.71293C9.23648 0.591731 9.06848 0.407135 8.88635 0.274699C8.61825 0.0797529 8.25292 -0.0590409 7.81382 0.0250549C7.41165 0.102081 7.11916 0.329379 6.92727 0.618902C6.80243 0.807275 6.71669 1.03577 6.66655 1.1694L6.65393 1.20291C6.4027 1.86581 6.14926 2.84455 6.04837 4.22021C4.38664 4.64809 2.96482 5.62964 1.91968 7.06978C0.498962 9.02743 -0.179153 11.7605 0.0435499 14.9758C0.121775 16.1052 1.57341 16.3514 2.09908 15.4588C2.66026 14.5058 3.58468 13.631 4.67485 12.9944C5.14304 12.721 5.6292 12.4988 6.1149 12.3343C6.23747 13.4025 6.44733 14.1935 6.65481 14.7574L6.66729 14.7915C6.71694 14.9278 6.80101 15.1586 6.92432 15.349C7.11362 15.6413 7.40574 15.8744 7.81229 15.9543C8.25481 16.0412 8.62286 15.901 8.89179 15.7053C9.07473 15.5723 9.2438 15.3865 9.35542 15.2638L9.38261 15.234L16.002 7.99298L9.3737 0.742465ZM8.00915 10.3843L8.00926 9.9957C6.53019 9.99527 4.99571 10.4879 3.66533 11.2648C3.10356 11.5929 2.566 11.9787 2.07483 12.4126C2.25839 10.6822 2.78843 9.28195 3.54004 8.24628C4.60067 6.78479 6.14679 5.98018 8.00838 5.98018V5.1756C8.03109 4.01646 8.16953 3.16334 8.32365 2.56168L13.2888 7.99301L8.33494 13.4122C8.16561 12.7378 8.01375 11.7534 8.00915 10.3843Z"
    fill="#fff" />
</svg>