<svg xmlns="http://www.w3.org/2000/svg" width="16" height="16" viewBox="0 0 16 16"><path d="M14.3378 6.43903C14.2797 6.41203 14.2207 6.39 14.1606 6.375C14.1636 6.303 14.1646 6.23097 14.1646 6.15997C14.1646 2.76397 11.3985 0 7.99997 0C4.6014 0 1.83531 2.76397 1.83531 6.15997C1.83531 6.23097 1.83631 6.303 1.83931 6.375C1.77926 6.391 1.72023 6.41203 1.66219 6.43903C-0.263265 7.35903 -0.162198 8.85202 0.233101 10.33C0.661424 11.923 1.32592 12.992 3.09026 12.992C3.29741 12.992 3.51959 12.977 3.75777 12.947L5.34797 12.667L3.98293 7.23798C3.88485 6.87298 3.83682 6.50897 3.83682 6.15997C3.83682 3.86597 5.70424 2 7.99997 2C10.2957 2 12.1631 3.86597 12.1631 6.15997C12.1631 6.50997 12.1141 6.87298 12.014 7.25098L11.5516 9.08801L10.2947 13.776C10.2687 13.869 10.0986 14 10.0015 14H7.99997C7.44655 14 6.99921 14.447 6.99921 15C6.99921 15.553 7.44655 16 7.99997 16H10.0015C11.0092 16 11.967 15.267 12.2282 14.293L12.5824 12.975C12.6995 12.984 12.8226 12.998 12.9317 12.998C14.671 12.998 15.3385 11.927 15.7678 10.33C16.1621 8.85302 16.2622 7.35903 14.3378 6.43903Z" fill="#a5a1b2"/></svg>